<svg width="77" height="94" viewBox="0 0 77 94" fill="none" xmlns="http://www.w3.org/2000/svg">
<path d="M0.999992 1.00001L0.499992 1.00001L0.499992 0.500006L0.999992 0.500006L0.999992 1.00001ZM1 91L1 91.5L0.5 91.5L0.5 91L1 91ZM76.6667 91C76.6667 92.4728 75.4728 93.6667 74 93.6667C72.5272 93.6667 71.3333 92.4728 71.3333 91C71.3333 89.5272 72.5272 88.3333 74 88.3333C75.4728 88.3333 76.6667 89.5272 76.6667 91ZM23.3469 1.5L0.999993 1.50001L0.999992 0.500006L23.3469 0.500004L23.3469 1.5ZM1.49999 1.00001L1.5 91L0.5 91L0.499992 1.00001L1.49999 1.00001ZM1 90.5L74 90.5L74 91.5L1 91.5L1 90.5Z" fill="#535353"/>
</svg>
