<?xml version="1.0" encoding="utf-8"?><svg viewBox="0 0 40 40" xmlns="http://www.w3.org/2000/svg" xmlns:xlink="http://www.w3.org/1999/xlink"><style>:root>svg{display:none}:root>svg:target{display:block}</style><svg viewBox="0 0 24 24" id="arrow-circle-icon" xmlns="http://www.w3.org/2000/svg"><circle cx="12" cy="12" r="11.5"/><path fill-rule="evenodd" clip-rule="evenodd" d="M7.2 12a.6.6 0 01.6-.6h8.4a.6.6 0 110 1.2H7.8a.6.6 0 01-.6-.6z"/><path fill-rule="evenodd" clip-rule="evenodd" d="M11.575 7.376a.6.6 0 01.849 0l4.2 4.2a.6.6 0 010 .848l-4.2 4.2a.6.6 0 01-.849-.848L15.351 12l-3.776-3.776a.6.6 0 010-.848z"/></svg><svg viewBox="0 0 40 40" id="play-circle-icon" xmlns="http://www.w3.org/2000/svg"><path fill-rule="evenodd" clip-rule="evenodd" d="M20 6.8C12.71 6.8 6.8 12.71 6.8 20c0 7.29 5.91 13.2 13.2 13.2 7.29 0 13.2-5.91 13.2-13.2 0-7.29-5.91-13.2-13.2-13.2zM4.4 20c0-8.616 6.984-15.6 15.6-15.6S35.6 11.384 35.6 20 28.616 35.6 20 35.6 4.4 28.615 4.4 20z"/><path fill-rule="evenodd" clip-rule="evenodd" d="M17.034 14.142a1.2 1.2 0 011.232.06l7.2 4.8a1.2 1.2 0 010 1.997l-7.2 4.8A1.2 1.2 0 0116.4 24.8v-9.6c0-.443.244-.85.634-1.058zm1.766 3.3v5.116L22.637 20 18.8 17.442z"/></svg></svg>