<svg width="16" height="16" viewBox="0 0 16 16" fill="none" xmlns="http://www.w3.org/2000/svg">
<path fill-rule="evenodd" clip-rule="evenodd" d="M5.12873 1.69098C5.33943 1.66395 5.55318 1.70692 5.73708 1.81327C5.92015 1.91914 6.06353 2.08199 6.14538 2.27694L7.36846 5.13079L7.36899 5.13202C7.43231 5.27836 7.45877 5.438 7.44606 5.59696C7.4333 5.75636 7.38154 5.91018 7.29533 6.04485L7.29212 6.04987L6.27637 7.59472C6.72969 8.52969 7.48577 9.28395 8.42182 9.73501L8.4238 9.73368L9.94604 8.71683C10.0811 8.62561 10.2371 8.56995 10.3994 8.55499C10.5617 8.54004 10.7252 8.56629 10.8747 8.6313L10.8765 8.6321L13.7234 9.85477C13.9182 9.93664 14.081 10.08 14.1868 10.263C14.2931 10.4469 14.3361 10.6606 14.3091 10.8713C14.2036 11.6944 13.8019 12.4509 13.179 12.9991C12.5561 13.5474 11.7548 13.85 10.925 13.8502C8.59774 13.8502 6.36567 12.9256 4.72004 11.28C3.07441 9.63439 2.1499 7.40243 2.1499 5.07516C2.15009 4.24535 2.45263 3.44393 3.00091 2.82106C3.54916 2.19823 4.30571 1.79647 5.12873 1.69098ZM5.80615 7.75641L5.39688 8.0156C5.32489 7.86516 5.29269 7.69877 5.30336 7.53234C5.31402 7.3659 5.36721 7.20499 5.45782 7.06497L5.45974 7.06202L6.47415 5.51916L6.47322 5.51704L5.24838 2.65907C4.66218 2.73526 4.12341 3.02148 3.73277 3.46527C3.34116 3.91015 3.12506 4.48247 3.1249 5.07516M5.80615 7.75641L5.39786 8.01762C5.94751 9.1527 6.86536 10.0682 8.00184 10.6149L8.00456 10.6162C8.15758 10.6887 8.32683 10.72 8.49565 10.7072C8.66404 10.6944 8.82621 10.6381 8.96629 10.5438L8.96737 10.5431L10.4888 9.52678L13.3406 10.7515L13.3414 10.7519C13.2652 11.3381 12.9786 11.8766 12.5348 12.2673C12.0899 12.6589 11.5176 12.875 10.9249 12.8752M3.1249 5.07516C3.12493 7.1438 3.94671 9.12783 5.40947 10.5906C6.87223 12.0533 8.85625 12.8751 10.9249 12.8752" fill="#E0E4EB"/>
</svg>
