<svg width="24" height="24" viewBox="0 0 24 24" fill="none" xmlns="http://www.w3.org/2000/svg">
<circle cx="12" cy="12" r="11.5" stroke="#E0E4EB"/>
<path fill-rule="evenodd" clip-rule="evenodd" d="M7.2002 11.9994C7.2002 11.668 7.46882 11.3994 7.8002 11.3994H16.2002C16.5316 11.3994 16.8002 11.668 16.8002 11.9994C16.8002 12.3308 16.5316 12.5994 16.2002 12.5994H7.8002C7.46882 12.5994 7.2002 12.3308 7.2002 11.9994Z" fill="#E0E4EB"/>
<path fill-rule="evenodd" clip-rule="evenodd" d="M11.5751 7.37593C11.8095 7.14162 12.1894 7.14162 12.4237 7.37593L16.6237 11.5759C16.858 11.8102 16.858 12.1901 16.6237 12.4245L12.4237 16.6245C12.1894 16.8588 11.8095 16.8588 11.5751 16.6245C11.3408 16.3901 11.3408 16.0102 11.5751 15.7759L15.3509 12.0002L11.5751 8.22446C11.3408 7.99014 11.3408 7.61025 11.5751 7.37593Z" fill="#E0E4EB"/>
</svg>
